<svg width="11" height="20" viewBox="0 0 11 20" fill="none" xmlns="http://www.w3.org/2000/svg">
<path d="M8.76934 18.7996L0.344336 10.3996C0.244336 10.2996 0.173669 10.1913 0.132336 10.0746C0.0903359 9.95794 0.0693359 9.83294 0.0693359 9.69961C0.0693359 9.56628 0.0903359 9.44128 0.132336 9.32461C0.173669 9.20794 0.244336 9.09961 0.344336 8.99961L8.76934 0.574609C9.00267 0.341276 9.29434 0.224609 9.64434 0.224609C9.99434 0.224609 10.2943 0.349609 10.5443 0.599609C10.7943 0.849609 10.9193 1.14128 10.9193 1.47461C10.9193 1.80794 10.7943 2.09961 10.5443 2.34961L3.19434 9.69961L10.5443 17.0496C10.7777 17.2829 10.8943 17.5703 10.8943 17.9116C10.8943 18.2536 10.7693 18.5496 10.5193 18.7996C10.2693 19.0496 9.97767 19.1746 9.64434 19.1746C9.311 19.1746 9.01934 19.0496 8.76934 18.7996Z" fill="#BEBEBE"/>
</svg>
