<svg width="12" height="12" viewBox="0 0 12 12" fill="none" xmlns="http://www.w3.org/2000/svg">
<path fill-rule="evenodd" clip-rule="evenodd" d="M0.424666 10.2623C0.228238 10.4564 0.228238 10.7711 0.424666 10.9651C0.621095 11.1592 0.939569 11.1592 1.136 10.9651L5.72909 6.42676L10.5807 11.2206C10.7771 11.4147 11.0956 11.4147 11.292 11.2206C11.4885 11.0265 11.4885 10.7118 11.292 10.5177L6.44042 5.72391L11.292 0.930088C11.4885 0.736 11.4885 0.42132 11.292 0.227231C11.0956 0.0331428 10.7771 0.033143 10.5807 0.227231L5.72909 5.02105L1.136 0.482673C0.939568 0.288584 0.621094 0.288584 0.424665 0.482673C0.228237 0.676761 0.228237 0.991441 0.424665 1.18553L5.01776 5.72391L0.424666 10.2623Z" fill="#7B7878"/>
</svg>
