<svg width="25" height="25" viewBox="0 0 25 25" fill="none" xmlns="http://www.w3.org/2000/svg">
<circle cx="12.2949" cy="12.4247" r="12" fill="#FF6C6A"/>
<path d="M12.2949 16.7437L9.00901 19.2369C8.8462 19.3693 8.66858 19.4317 8.47616 19.4241C8.28375 19.417 8.11353 19.362 7.96552 19.259C7.8175 19.156 7.70294 19.0163 7.62183 18.8398C7.54012 18.6633 7.53627 18.4721 7.61028 18.2661L8.8758 14.1842L5.6565 11.9116C5.47888 11.7939 5.36787 11.6395 5.32347 11.4482C5.27906 11.257 5.28646 11.0805 5.34567 10.9187C5.40488 10.7569 5.50848 10.6133 5.6565 10.488C5.80451 10.3633 5.98213 10.3009 6.18935 10.3009H10.1635L11.4512 6.06455C11.5252 5.85861 11.6401 5.70034 11.7958 5.58972C11.9509 5.4797 12.1173 5.42468 12.2949 5.42468C12.4725 5.42468 12.6389 5.4797 12.794 5.58972C12.9497 5.70034 13.0646 5.85861 13.1386 6.06455L14.4263 10.3009H18.4005C18.6077 10.3009 18.7853 10.3633 18.9333 10.488C19.0814 10.6133 19.185 10.7569 19.2442 10.9187C19.3034 11.0805 19.3108 11.257 19.2664 11.4482C19.222 11.6395 19.111 11.7939 18.9333 11.9116L15.714 14.1842L16.9796 18.2661C17.0536 18.4721 17.05 18.6633 16.9689 18.8398C16.8872 19.0163 16.7723 19.156 16.6243 19.259C16.4763 19.362 16.3061 19.417 16.1137 19.4241C15.9213 19.4317 15.7436 19.3693 15.5808 19.2369L12.2949 16.7437Z" fill="white"/>
</svg>
